<svg width="19" height="18" viewBox="0 0 19 18" fill="none" xmlns="http://www.w3.org/2000/svg">
<g clip-path="url(#clip0)">
<path d="M19 3.41888C18.2934 3.7125 17.5406 3.90712 16.7556 4.00162C17.5631 3.54487 18.1794 2.82712 18.4692 1.962C17.7163 2.38725 16.8851 2.68763 15.9992 2.85525C15.2843 2.13413 14.2654 1.6875 13.1539 1.6875C10.9974 1.6875 9.26131 3.34575 9.26131 5.37863C9.26131 5.67113 9.28744 5.95237 9.35156 6.22012C6.11325 6.0705 3.24781 4.60013 1.32287 2.36025C0.986812 2.91263 0.789688 3.54488 0.789688 4.2255C0.789688 5.5035 1.48438 6.63637 2.51987 7.29225C1.89406 7.281 1.28012 7.10888 0.76 6.83775C0.76 6.849 0.76 6.86362 0.76 6.87825C0.76 8.6715 2.11019 10.161 3.88075 10.5041C3.56369 10.5862 3.21812 10.6256 2.8595 10.6256C2.61012 10.6256 2.35837 10.6121 2.12206 10.5626C2.62675 12.024 4.05888 13.0984 5.76175 13.1332C4.4365 14.1154 2.75381 14.7071 0.932188 14.7071C0.61275 14.7071 0.306375 14.6936 0 14.6565C1.72544 15.7106 3.77031 16.3125 5.9755 16.3125C13.1432 16.3125 17.062 10.6875 17.062 5.81175C17.062 5.64862 17.0561 5.49113 17.0477 5.33475C17.8208 4.815 18.4704 4.16588 19 3.41888Z" fill="#F53838"/>
</g>
<defs>
<clipPath id="clip0">
<rect width="19" height="18" fill="white"/>
</clipPath>
</defs>
</svg>
